<svg width="526" height="526" viewBox="0 0 526 526" fill="none" xmlns="http://www.w3.org/2000/svg">
<g opacity="0.8">
<mask id="mask0_41_7592" style="mask-type:luminance" maskUnits="userSpaceOnUse" x="0" y="0" width="526" height="526">
<path d="M263 526C408.251 526 526 408.251 526 263C526 117.749 408.251 0 263 0C117.749 0 0 117.749 0 263C0 408.251 117.749 526 263 526Z" fill="white"/>
</mask>
<g mask="url(#mask0_41_7592)">
<path d="M262.993 525.992C408.244 525.992 525.993 408.243 525.993 262.992C525.993 117.741 408.244 -0.00775146 262.993 -0.00775146C117.743 -0.00775146 -0.0065918 117.741 -0.0065918 262.992C-0.0065918 408.243 117.743 525.992 262.993 525.992Z" fill="black"/>
<path d="M678.592 -22.7323H-152.605V600.67H678.592V-22.7323Z" fill="#2B83FC"/>
<path d="M55.1979 -22.7323H-48.7V81.1655H55.1979V-22.7323Z" stroke="#8AB0DD" stroke-width="0.33" stroke-miterlimit="10"/>
<path d="M3.24586 81.173C31.9385 81.173 55.1985 57.913 55.1985 29.2203C55.1985 0.527689 31.9385 -22.7323 3.24586 -22.7323C-25.4468 -22.7323 -48.7068 0.527689 -48.7068 29.2203C-48.7068 57.913 -25.4468 81.173 3.24586 81.173Z" stroke="#8AB0DD" stroke-width="0.33" stroke-miterlimit="10"/>
<path d="M-48.7 29.2205H55.1979" stroke="#8AB0DD" stroke-width="0.33" stroke-miterlimit="10"/>
<path d="M3.24487 81.173V-22.7323" stroke="#8AB0DD" stroke-width="0.33" stroke-miterlimit="10"/>
<path d="M159.095 -22.7323H55.1973V81.1655H159.095V-22.7323Z" stroke="#8AB0DD" stroke-width="0.33" stroke-miterlimit="10"/>
<path d="M107.15 81.173C135.843 81.173 159.103 57.913 159.103 29.2203C159.103 0.527689 135.843 -22.7323 107.15 -22.7323C78.4573 -22.7323 55.1973 0.527689 55.1973 29.2203C55.1973 57.913 78.4573 81.173 107.15 81.173Z" stroke="#8AB0DD" stroke-width="0.33" stroke-miterlimit="10"/>
<path d="M55.1973 29.2205H159.095" stroke="#8AB0DD" stroke-width="0.33" stroke-miterlimit="10"/>
<path d="M107.15 81.173V-22.7323" stroke="#8AB0DD" stroke-width="0.33" stroke-miterlimit="10"/>
<path d="M262.994 -22.7323H159.096V81.1655H262.994V-22.7323Z" stroke="#8AB0DD" stroke-width="0.33" stroke-miterlimit="10"/>
<path d="M211.049 81.173C239.741 81.173 263.001 57.913 263.001 29.2203C263.001 0.527689 239.741 -22.7323 211.049 -22.7323C182.356 -22.7323 159.096 0.527689 159.096 29.2203C159.096 57.913 182.356 81.173 211.049 81.173Z" stroke="#8AB0DD" stroke-width="0.33" stroke-miterlimit="10"/>
<path d="M159.096 29.2205H262.994" stroke="#8AB0DD" stroke-width="0.33" stroke-miterlimit="10"/>
<path d="M211.049 81.173V-22.7323" stroke="#8AB0DD" stroke-width="0.33" stroke-miterlimit="10"/>
<path d="M366.891 -22.7323H262.993V81.1655H366.891V-22.7323Z" stroke="#8AB0DD" stroke-width="0.33" stroke-miterlimit="10"/>
<path d="M314.945 81.173C343.638 81.173 366.898 57.913 366.898 29.2203C366.898 0.527689 343.638 -22.7323 314.945 -22.7323C286.253 -22.7323 262.993 0.527689 262.993 29.2203C262.993 57.913 286.253 81.173 314.945 81.173Z" stroke="#8AB0DD" stroke-width="0.33" stroke-miterlimit="10"/>
<path d="M262.993 29.2205H366.898" stroke="#8AB0DD" stroke-width="0.33" stroke-miterlimit="10"/>
<path d="M314.946 81.173V-22.7323" stroke="#8AB0DD" stroke-width="0.33" stroke-miterlimit="10"/>
<path d="M470.796 -22.7323H366.898V81.1655H470.796V-22.7323Z" stroke="#8AB0DD" stroke-width="0.33" stroke-miterlimit="10"/>
<path d="M418.844 81.173C447.536 81.173 470.796 57.913 470.796 29.2203C470.796 0.527689 447.536 -22.7323 418.844 -22.7323C390.151 -22.7323 366.891 0.527689 366.891 29.2203C366.891 57.913 390.151 81.173 418.844 81.173Z" stroke="#8AB0DD" stroke-width="0.33" stroke-miterlimit="10"/>
<path d="M366.898 29.2205H470.796" stroke="#8AB0DD" stroke-width="0.33" stroke-miterlimit="10"/>
<path d="M418.844 81.173V-22.7323" stroke="#8AB0DD" stroke-width="0.33" stroke-miterlimit="10"/>
<path d="M574.695 -22.7323H470.797V81.1655H574.695V-22.7323Z" stroke="#8AB0DD" stroke-width="0.33" stroke-miterlimit="10"/>
<path d="M522.75 81.173C551.442 81.173 574.702 57.913 574.702 29.2203C574.702 0.527689 551.442 -22.7323 522.75 -22.7323C494.057 -22.7323 470.797 0.527689 470.797 29.2203C470.797 57.913 494.057 81.173 522.75 81.173Z" stroke="#8AB0DD" stroke-width="0.33" stroke-miterlimit="10"/>
<path d="M470.797 29.2205H574.695" stroke="#8AB0DD" stroke-width="0.33" stroke-miterlimit="10"/>
<path d="M522.749 81.173V-22.7323" stroke="#8AB0DD" stroke-width="0.33" stroke-miterlimit="10"/>
<path d="M55.1979 81.1729H-48.7V185.071H55.1979V81.1729Z" stroke="#8AB0DD" stroke-width="0.33" stroke-miterlimit="10"/>
<path d="M3.24586 185.071C31.9385 185.071 55.1985 161.811 55.1985 133.118C55.1985 104.426 31.9385 81.1656 3.24586 81.1656C-25.4468 81.1656 -48.7068 104.426 -48.7068 133.118C-48.7068 161.811 -25.4468 185.071 3.24586 185.071Z" stroke="#8AB0DD" stroke-width="0.33" stroke-miterlimit="10"/>
<path d="M-48.7 133.118H55.1979" stroke="#8AB0DD" stroke-width="0.33" stroke-miterlimit="10"/>
<path d="M3.24487 185.071V81.1729" stroke="#8AB0DD" stroke-width="0.33" stroke-miterlimit="10"/>
<path d="M159.095 81.1729H55.1973V185.071H159.095V81.1729Z" stroke="#8AB0DD" stroke-width="0.33" stroke-miterlimit="10"/>
<path d="M107.15 185.071C135.843 185.071 159.103 161.811 159.103 133.118C159.103 104.426 135.843 81.1656 107.15 81.1656C78.4573 81.1656 55.1973 104.426 55.1973 133.118C55.1973 161.811 78.4573 185.071 107.15 185.071Z" stroke="#8AB0DD" stroke-width="0.33" stroke-miterlimit="10"/>
<path d="M55.1973 133.118H159.095" stroke="#8AB0DD" stroke-width="0.33" stroke-miterlimit="10"/>
<path d="M107.15 185.071V81.1729" stroke="#8AB0DD" stroke-width="0.33" stroke-miterlimit="10"/>
<path d="M262.994 81.1729H159.096V185.071H262.994V81.1729Z" stroke="#8AB0DD" stroke-width="0.33" stroke-miterlimit="10"/>
<path d="M211.049 185.071C239.741 185.071 263.001 161.811 263.001 133.118C263.001 104.426 239.741 81.1656 211.049 81.1656C182.356 81.1656 159.096 104.426 159.096 133.118C159.096 161.811 182.356 185.071 211.049 185.071Z" stroke="#8AB0DD" stroke-width="0.33" stroke-miterlimit="10"/>
<path d="M159.096 133.118H262.994" stroke="#8AB0DD" stroke-width="0.33" stroke-miterlimit="10"/>
<path d="M211.049 185.071V81.1729" stroke="#8AB0DD" stroke-width="0.33" stroke-miterlimit="10"/>
<path d="M366.891 81.1729H262.993V185.071H366.891V81.1729Z" stroke="#8AB0DD" stroke-width="0.33" stroke-miterlimit="10"/>
<path d="M314.945 185.071C343.638 185.071 366.898 161.811 366.898 133.118C366.898 104.426 343.638 81.1656 314.945 81.1656C286.253 81.1656 262.993 104.426 262.993 133.118C262.993 161.811 286.253 185.071 314.945 185.071Z" stroke="#8AB0DD" stroke-width="0.33" stroke-miterlimit="10"/>
<path d="M262.993 133.118H366.898" stroke="#8AB0DD" stroke-width="0.33" stroke-miterlimit="10"/>
<path d="M314.946 81.1729V185.071" stroke="#8AB0DD" stroke-width="0.33" stroke-miterlimit="10"/>
<path d="M470.796 81.1729H366.898V185.071H470.796V81.1729Z" stroke="#8AB0DD" stroke-width="0.33" stroke-miterlimit="10"/>
<path d="M418.844 185.071C447.536 185.071 470.796 161.811 470.796 133.118C470.796 104.426 447.536 81.1656 418.844 81.1656C390.151 81.1656 366.891 104.426 366.891 133.118C366.891 161.811 390.151 185.071 418.844 185.071Z" stroke="#8AB0DD" stroke-width="0.33" stroke-miterlimit="10"/>
<path d="M366.898 133.118H470.796" stroke="#8AB0DD" stroke-width="0.33" stroke-miterlimit="10"/>
<path d="M418.844 185.071V81.1729" stroke="#8AB0DD" stroke-width="0.33" stroke-miterlimit="10"/>
<path d="M574.695 81.1729H470.797V185.071H574.695V81.1729Z" stroke="#8AB0DD" stroke-width="0.33" stroke-miterlimit="10"/>
<path d="M522.75 185.071C551.442 185.071 574.702 161.811 574.702 133.118C574.702 104.426 551.442 81.1656 522.75 81.1656C494.057 81.1656 470.797 104.426 470.797 133.118C470.797 161.811 494.057 185.071 522.75 185.071Z" stroke="#8AB0DD" stroke-width="0.33" stroke-miterlimit="10"/>
<path d="M470.797 133.118H574.695" stroke="#8AB0DD" stroke-width="0.33" stroke-miterlimit="10"/>
<path d="M522.749 185.071V81.1729" stroke="#8AB0DD" stroke-width="0.33" stroke-miterlimit="10"/>
<path d="M55.1979 185.071H-48.7V288.969H55.1979V185.071Z" stroke="#8AB0DD" stroke-width="0.33" stroke-miterlimit="10"/>
<path d="M3.24586 288.976C31.9385 288.976 55.1985 265.716 55.1985 237.023C55.1985 208.331 31.9385 185.071 3.24586 185.071C-25.4468 185.071 -48.7068 208.331 -48.7068 237.023C-48.7068 265.716 -25.4468 288.976 3.24586 288.976Z" stroke="#8AB0DD" stroke-width="0.33" stroke-miterlimit="10"/>
<path d="M-48.7 237.024H55.1979" stroke="#8AB0DD" stroke-width="0.33" stroke-miterlimit="10"/>
<path d="M3.24487 288.969V185.071" stroke="#8AB0DD" stroke-width="0.33" stroke-miterlimit="10"/>
<path d="M159.095 185.071H55.1973V288.969H159.095V185.071Z" stroke="#8AB0DD" stroke-width="0.33" stroke-miterlimit="10"/>
<path d="M107.15 288.976C135.843 288.976 159.103 265.716 159.103 237.023C159.103 208.331 135.843 185.071 107.15 185.071C78.4573 185.071 55.1973 208.331 55.1973 237.023C55.1973 265.716 78.4573 288.976 107.15 288.976Z" stroke="#8AB0DD" stroke-width="0.33" stroke-miterlimit="10"/>
<path d="M55.1973 237.024H159.095" stroke="#8AB0DD" stroke-width="0.33" stroke-miterlimit="10"/>
<path d="M107.15 288.969V185.071" stroke="#8AB0DD" stroke-width="0.33" stroke-miterlimit="10"/>
<path d="M262.994 185.071H159.096V288.969H262.994V185.071Z" stroke="#8AB0DD" stroke-width="0.33" stroke-miterlimit="10"/>
<path d="M211.049 288.976C239.741 288.976 263.001 265.716 263.001 237.023C263.001 208.331 239.741 185.071 211.049 185.071C182.356 185.071 159.096 208.331 159.096 237.023C159.096 265.716 182.356 288.976 211.049 288.976Z" stroke="#8AB0DD" stroke-width="0.33" stroke-miterlimit="10"/>
<path d="M159.096 237.024H262.994" stroke="#8AB0DD" stroke-width="0.33" stroke-miterlimit="10"/>
<path d="M211.049 288.969V185.071" stroke="#8AB0DD" stroke-width="0.33" stroke-miterlimit="10"/>
<path d="M366.891 185.071H262.993V288.969H366.891V185.071Z" stroke="#8AB0DD" stroke-width="0.33" stroke-miterlimit="10"/>
<path d="M314.945 288.976C343.638 288.976 366.898 265.716 366.898 237.023C366.898 208.331 343.638 185.071 314.945 185.071C286.253 185.071 262.993 208.331 262.993 237.023C262.993 265.716 286.253 288.976 314.945 288.976Z" stroke="#8AB0DD" stroke-width="0.33" stroke-miterlimit="10"/>
<path d="M262.993 237.024H366.898" stroke="#8AB0DD" stroke-width="0.33" stroke-miterlimit="10"/>
<path d="M314.946 288.969V185.071" stroke="#8AB0DD" stroke-width="0.33" stroke-miterlimit="10"/>
<path d="M470.796 185.071H366.898V288.969H470.796V185.071Z" stroke="#8AB0DD" stroke-width="0.33" stroke-miterlimit="10"/>
<path d="M418.844 288.976C447.536 288.976 470.796 265.716 470.796 237.023C470.796 208.331 447.536 185.071 418.844 185.071C390.151 185.071 366.891 208.331 366.891 237.023C366.891 265.716 390.151 288.976 418.844 288.976Z" stroke="#8AB0DD" stroke-width="0.33" stroke-miterlimit="10"/>
<path d="M366.898 237.024H470.796" stroke="#8AB0DD" stroke-width="0.33" stroke-miterlimit="10"/>
<path d="M418.844 288.969V185.071" stroke="#8AB0DD" stroke-width="0.33" stroke-miterlimit="10"/>
<path d="M574.695 185.071H470.797V288.969H574.695V185.071Z" stroke="#8AB0DD" stroke-width="0.33" stroke-miterlimit="10"/>
<path d="M522.75 288.976C551.442 288.976 574.702 265.716 574.702 237.023C574.702 208.331 551.442 185.071 522.75 185.071C494.057 185.071 470.797 208.331 470.797 237.023C470.797 265.716 494.057 288.976 522.75 288.976Z" stroke="#8AB0DD" stroke-width="0.33" stroke-miterlimit="10"/>
<path d="M470.797 237.024H574.695" stroke="#8AB0DD" stroke-width="0.33" stroke-miterlimit="10"/>
<path d="M522.749 288.969V185.071" stroke="#8AB0DD" stroke-width="0.33" stroke-miterlimit="10"/>
<path d="M55.1979 288.969H-48.7V392.866H55.1979V288.969Z" stroke="#8AB0DD" stroke-width="0.33" stroke-miterlimit="10"/>
<path d="M3.24586 392.874C31.9385 392.874 55.1985 369.614 55.1985 340.921C55.1985 312.229 31.9385 288.969 3.24586 288.969C-25.4468 288.969 -48.7068 312.229 -48.7068 340.921C-48.7068 369.614 -25.4468 392.874 3.24586 392.874Z" stroke="#8AB0DD" stroke-width="0.33" stroke-miterlimit="10"/>
<path d="M-48.7 340.922H55.1979" stroke="#8AB0DD" stroke-width="0.33" stroke-miterlimit="10"/>
<path d="M3.24487 392.866V288.969" stroke="#8AB0DD" stroke-width="0.33" stroke-miterlimit="10"/>
<path d="M159.095 288.969H55.1973V392.866H159.095V288.969Z" stroke="#8AB0DD" stroke-width="0.33" stroke-miterlimit="10"/>
<path d="M107.15 392.874C135.843 392.874 159.103 369.614 159.103 340.921C159.103 312.229 135.843 288.969 107.15 288.969C78.4573 288.969 55.1973 312.229 55.1973 340.921C55.1973 369.614 78.4573 392.874 107.15 392.874Z" stroke="#8AB0DD" stroke-width="0.33" stroke-miterlimit="10"/>
<path d="M55.1973 340.922H159.095" stroke="#8AB0DD" stroke-width="0.33" stroke-miterlimit="10"/>
<path d="M107.15 392.866V288.969" stroke="#8AB0DD" stroke-width="0.33" stroke-miterlimit="10"/>
<path d="M262.994 288.969H159.096V392.866H262.994V288.969Z" stroke="#8AB0DD" stroke-width="0.33" stroke-miterlimit="10"/>
<path d="M211.049 392.874C239.741 392.874 263.001 369.614 263.001 340.921C263.001 312.229 239.741 288.969 211.049 288.969C182.356 288.969 159.096 312.229 159.096 340.921C159.096 369.614 182.356 392.874 211.049 392.874Z" stroke="#8AB0DD" stroke-width="0.33" stroke-miterlimit="10"/>
<path d="M159.096 340.922H262.994" stroke="#8AB0DD" stroke-width="0.33" stroke-miterlimit="10"/>
<path d="M211.049 392.866V288.969" stroke="#8AB0DD" stroke-width="0.33" stroke-miterlimit="10"/>
<path d="M366.891 288.969H262.993V392.866H366.891V288.969Z" stroke="#8AB0DD" stroke-width="0.33" stroke-miterlimit="10"/>
<path d="M314.945 392.874C343.638 392.874 366.898 369.614 366.898 340.921C366.898 312.229 343.638 288.969 314.945 288.969C286.253 288.969 262.993 312.229 262.993 340.921C262.993 369.614 286.253 392.874 314.945 392.874Z" stroke="#8AB0DD" stroke-width="0.33" stroke-miterlimit="10"/>
<path d="M262.993 340.922H366.898" stroke="#8AB0DD" stroke-width="0.33" stroke-miterlimit="10"/>
<path d="M314.946 392.866V288.969" stroke="#8AB0DD" stroke-width="0.33" stroke-miterlimit="10"/>
<path d="M470.796 288.969H366.898V392.866H470.796V288.969Z" stroke="#8AB0DD" stroke-width="0.33" stroke-miterlimit="10"/>
<path d="M418.844 392.874C447.536 392.874 470.796 369.614 470.796 340.921C470.796 312.229 447.536 288.969 418.844 288.969C390.151 288.969 366.891 312.229 366.891 340.921C366.891 369.614 390.151 392.874 418.844 392.874Z" stroke="#8AB0DD" stroke-width="0.33" stroke-miterlimit="10"/>
<path d="M366.898 340.922H470.796" stroke="#8AB0DD" stroke-width="0.33" stroke-miterlimit="10"/>
<path d="M418.844 392.866V288.969" stroke="#8AB0DD" stroke-width="0.33" stroke-miterlimit="10"/>
<path d="M574.695 288.969H470.797V392.866H574.695V288.969Z" stroke="#8AB0DD" stroke-width="0.33" stroke-miterlimit="10"/>
<path d="M522.75 392.874C551.442 392.874 574.702 369.614 574.702 340.921C574.702 312.229 551.442 288.969 522.75 288.969C494.057 288.969 470.797 312.229 470.797 340.921C470.797 369.614 494.057 392.874 522.75 392.874Z" stroke="#8AB0DD" stroke-width="0.33" stroke-miterlimit="10"/>
<path d="M470.797 340.922H574.695" stroke="#8AB0DD" stroke-width="0.33" stroke-miterlimit="10"/>
<path d="M522.749 392.866V288.969" stroke="#8AB0DD" stroke-width="0.33" stroke-miterlimit="10"/>
<path d="M574.695 392.867H470.797V444.819H574.695V392.867Z" stroke="#8AB0DD" stroke-width="0.33" stroke-miterlimit="10"/>
<path d="M470.797 444.819C470.96 431.149 476.506 418.094 486.23 408.486C495.955 398.877 509.075 393.488 522.746 393.488C536.417 393.488 549.537 398.877 559.261 408.486C568.986 418.094 574.531 431.149 574.695 444.819" stroke="#8AB0DD" stroke-width="0.33" stroke-miterlimit="10"/>
<path d="M470.797 444.819H574.695" stroke="#8AB0DD" stroke-width="0.33" stroke-miterlimit="10"/>
<path d="M522.749 444.819V392.867" stroke="#8AB0DD" stroke-width="0.33" stroke-miterlimit="10"/>
<path d="M470.796 392.867H366.898V444.819H470.796V392.867Z" stroke="#8AB0DD" stroke-width="0.33" stroke-miterlimit="10"/>
<path d="M366.898 444.819C367.062 431.149 372.607 418.094 382.332 408.486C392.056 398.877 405.176 393.488 418.847 393.488C432.518 393.488 445.638 398.877 455.363 408.486C465.087 418.094 470.632 431.149 470.796 444.819" stroke="#8AB0DD" stroke-width="0.33" stroke-miterlimit="10"/>
<path d="M366.898 444.819H470.796" stroke="#8AB0DD" stroke-width="0.33" stroke-miterlimit="10"/>
<path d="M418.844 444.819V392.867" stroke="#8AB0DD" stroke-width="0.33" stroke-miterlimit="10"/>
<path d="M366.891 392.867H262.993V444.819H366.891V392.867Z" stroke="#8AB0DD" stroke-width="0.33" stroke-miterlimit="10"/>
<path d="M263 444.819C263.164 431.149 268.709 418.094 278.433 408.486C288.158 398.877 301.278 393.488 314.949 393.488C328.62 393.488 341.74 398.877 351.465 408.486C361.189 418.094 366.734 431.149 366.898 444.819" stroke="#8AB0DD" stroke-width="0.33" stroke-miterlimit="10"/>
<path d="M262.993 444.819H366.898" stroke="#8AB0DD" stroke-width="0.33" stroke-miterlimit="10"/>
<path d="M314.946 444.819V392.867" stroke="#8AB0DD" stroke-width="0.33" stroke-miterlimit="10"/>
<path d="M262.994 392.867H159.096V444.819H262.994V392.867Z" stroke="#8AB0DD" stroke-width="0.33" stroke-miterlimit="10"/>
<path d="M159.096 444.819C159.096 431.041 164.57 417.826 174.313 408.083C184.056 398.34 197.27 392.867 211.049 392.867C224.827 392.867 238.042 398.34 247.785 408.083C257.528 417.826 263.001 431.041 263.001 444.819" stroke="#8AB0DD" stroke-width="0.33" stroke-miterlimit="10"/>
<path d="M159.096 444.819H262.994" stroke="#8AB0DD" stroke-width="0.33" stroke-miterlimit="10"/>
<path d="M211.049 444.819V392.867" stroke="#8AB0DD" stroke-width="0.33" stroke-miterlimit="10"/>
<path d="M159.095 392.867H55.1973V444.819H159.095V392.867Z" stroke="#8AB0DD" stroke-width="0.33" stroke-miterlimit="10"/>
<path d="M55.1973 444.819C55.3609 431.149 60.9061 418.094 70.6306 408.486C80.3551 398.877 93.4752 393.488 107.146 393.488C120.817 393.488 133.937 398.877 143.662 408.486C153.386 418.094 158.932 431.149 159.095 444.819" stroke="#8AB0DD" stroke-width="0.33" stroke-miterlimit="10"/>
<path d="M55.1973 444.819H159.095" stroke="#8AB0DD" stroke-width="0.33" stroke-miterlimit="10"/>
<path d="M107.15 444.819V392.867" stroke="#8AB0DD" stroke-width="0.33" stroke-miterlimit="10"/>
<path d="M55.1979 392.867H-48.7V444.819H55.1979V392.867Z" stroke="#8AB0DD" stroke-width="0.33" stroke-miterlimit="10"/>
<path d="M-48.7 444.819C-48.5363 431.149 -42.9911 418.094 -33.2666 408.486C-23.5421 398.877 -10.422 393.488 3.24897 393.488C16.92 393.488 30.04 398.877 39.7646 408.486C49.4891 418.094 55.0343 431.149 55.1979 444.819" stroke="#8AB0DD" stroke-width="0.33" stroke-miterlimit="10"/>
<path d="M-48.7 444.819H55.1979" stroke="#8AB0DD" stroke-width="0.33" stroke-miterlimit="10"/>
<path d="M3.24487 444.819V392.867" stroke="#8AB0DD" stroke-width="0.33" stroke-miterlimit="10"/>
<path d="M470.796 600.67H574.694V496.772H470.796V600.67Z" stroke="#8AB0DD" stroke-width="0.33" stroke-miterlimit="10"/>
<path d="M522.75 600.67C551.442 600.67 574.702 577.41 574.702 548.717C574.702 520.024 551.442 496.764 522.75 496.764C494.057 496.764 470.797 520.024 470.797 548.717C470.797 577.41 494.057 600.67 522.75 600.67Z" stroke="#8AB0DD" stroke-width="0.33" stroke-miterlimit="10"/>
<path d="M522.749 496.771V600.669" stroke="#8AB0DD" stroke-width="0.33" stroke-miterlimit="10"/>
<path d="M366.899 600.67H470.797V496.772H366.899V600.67Z" stroke="#8AB0DD" stroke-width="0.33" stroke-miterlimit="10"/>
<path d="M418.844 600.67C447.536 600.67 470.796 577.41 470.796 548.717C470.796 520.024 447.536 496.764 418.844 496.764C390.151 496.764 366.891 520.024 366.891 548.717C366.891 577.41 390.151 600.67 418.844 600.67Z" stroke="#8AB0DD" stroke-width="0.33" stroke-miterlimit="10"/>
<path d="M418.844 496.771V600.669" stroke="#8AB0DD" stroke-width="0.33" stroke-miterlimit="10"/>
<path d="M262.993 600.67H366.891V496.772H262.993V600.67Z" stroke="#8AB0DD" stroke-width="0.33" stroke-miterlimit="10"/>
<path d="M314.945 600.67C343.638 600.67 366.898 577.41 366.898 548.717C366.898 520.024 343.638 496.764 314.945 496.764C286.253 496.764 262.993 520.024 262.993 548.717C262.993 577.41 286.253 600.67 314.945 600.67Z" stroke="#8AB0DD" stroke-width="0.33" stroke-miterlimit="10"/>
<path d="M314.946 496.771V600.669" stroke="#8AB0DD" stroke-width="0.33" stroke-miterlimit="10"/>
<path d="M159.102 600.67H263V496.772H159.102V600.67Z" stroke="#8AB0DD" stroke-width="0.33" stroke-miterlimit="10"/>
<path d="M211.049 600.67C239.741 600.67 263.001 577.41 263.001 548.717C263.001 520.024 239.741 496.764 211.049 496.764C182.356 496.764 159.096 520.024 159.096 548.717C159.096 577.41 182.356 600.67 211.049 600.67Z" stroke="#8AB0DD" stroke-width="0.33" stroke-miterlimit="10"/>
<path d="M211.049 496.771V600.669" stroke="#8AB0DD" stroke-width="0.33" stroke-miterlimit="10"/>
<path d="M55.1981 600.67H159.096V496.772H55.1981L55.1981 600.67Z" stroke="#8AB0DD" stroke-width="0.33" stroke-miterlimit="10"/>
<path d="M107.15 600.67C135.843 600.67 159.103 577.41 159.103 548.717C159.103 520.024 135.843 496.764 107.15 496.764C78.4573 496.764 55.1973 520.024 55.1973 548.717C55.1973 577.41 78.4573 600.67 107.15 600.67Z" stroke="#8AB0DD" stroke-width="0.33" stroke-miterlimit="10"/>
<path d="M107.15 496.771V600.669" stroke="#8AB0DD" stroke-width="0.33" stroke-miterlimit="10"/>
<path d="M-48.7006 600.67H55.1973L55.1973 496.772H-48.7006L-48.7006 600.67Z" stroke="#8AB0DD" stroke-width="0.33" stroke-miterlimit="10"/>
<path d="M3.24586 600.67C31.9385 600.67 55.1985 577.41 55.1985 548.717C55.1985 520.024 31.9385 496.764 3.24586 496.764C-25.4468 496.764 -48.7068 520.024 -48.7068 548.717C-48.7068 577.41 -25.4468 600.67 3.24586 600.67Z" stroke="#8AB0DD" stroke-width="0.33" stroke-miterlimit="10"/>
<path d="M3.24487 496.771V600.669" stroke="#8AB0DD" stroke-width="0.33" stroke-miterlimit="10"/>
<path d="M-48.7006 496.771H55.1973L55.1973 444.819H-48.7006V496.771Z" stroke="#8AB0DD" stroke-width="0.33" stroke-miterlimit="10"/>
<path d="M55.1975 444.819C55.2797 451.694 53.9968 458.516 51.423 464.891C48.8493 471.266 45.0358 477.066 40.2038 481.957C35.3717 486.847 29.6171 490.729 23.2735 493.379C16.9298 496.029 10.1234 497.394 3.24854 497.394C-3.6263 497.394 -10.4328 496.029 -16.7764 493.379C-23.12 490.729 -28.8746 486.847 -33.7067 481.957C-38.5388 477.066 -42.3522 471.266 -44.926 464.891C-47.4997 458.516 -48.7827 451.694 -48.7004 444.819" stroke="#8AB0DD" stroke-width="0.33" stroke-miterlimit="10"/>
<path d="M55.1979 444.819H-48.7" stroke="#8AB0DD" stroke-width="0.33" stroke-miterlimit="10"/>
<path d="M3.24487 444.819V496.772" stroke="#8AB0DD" stroke-width="0.33" stroke-miterlimit="10"/>
<path d="M55.1981 496.771H159.096V444.819H55.1981V496.771Z" stroke="#8AB0DD" stroke-width="0.33" stroke-miterlimit="10"/>
<path d="M159.096 444.819C159.179 451.694 157.896 458.516 155.322 464.891C152.748 471.266 148.935 477.066 144.103 481.957C139.271 486.847 133.516 490.729 127.172 493.379C120.829 496.029 114.022 497.394 107.147 497.394C100.273 497.394 93.4662 496.029 87.1225 493.379C80.7789 490.729 75.0243 486.847 70.1922 481.957C65.3602 477.066 61.5467 471.266 58.973 464.891C56.3992 458.516 55.1163 451.694 55.1985 444.819" stroke="#8AB0DD" stroke-width="0.33" stroke-miterlimit="10"/>
<path d="M159.095 444.819H55.1973" stroke="#8AB0DD" stroke-width="0.33" stroke-miterlimit="10"/>
<path d="M107.15 444.819V496.772" stroke="#8AB0DD" stroke-width="0.33" stroke-miterlimit="10"/>
<path d="M159.102 496.771H263V444.819H159.102V496.771Z" stroke="#8AB0DD" stroke-width="0.33" stroke-miterlimit="10"/>
<path d="M263.001 444.819C263.001 451.642 261.657 458.398 259.047 464.701C256.436 471.004 252.609 476.731 247.785 481.555C242.96 486.38 237.233 490.206 230.93 492.817C224.627 495.428 217.871 496.772 211.049 496.772C204.226 496.772 197.47 495.428 191.167 492.817C184.864 490.206 179.137 486.38 174.313 481.555C169.488 476.731 165.661 471.004 163.051 464.701C160.44 458.398 159.096 451.642 159.096 444.819" stroke="#8AB0DD" stroke-width="0.33" stroke-miterlimit="10"/>
<path d="M262.994 444.819H159.096" stroke="#8AB0DD" stroke-width="0.33" stroke-miterlimit="10"/>
<path d="M211.049 444.819V496.772" stroke="#8AB0DD" stroke-width="0.33" stroke-miterlimit="10"/>
<path d="M262.993 496.771H366.891V444.819H262.993V496.771Z" stroke="#8AB0DD" stroke-width="0.33" stroke-miterlimit="10"/>
<path d="M366.899 444.819C366.981 451.694 365.698 458.516 363.124 464.891C360.551 471.266 356.737 477.066 351.905 481.957C347.073 486.847 341.318 490.729 334.975 493.379C328.631 496.029 321.825 497.394 314.95 497.394C308.075 497.394 301.269 496.029 294.925 493.379C288.581 490.729 282.827 486.847 277.995 481.957C273.163 477.066 269.349 471.266 266.775 464.891C264.202 458.516 262.919 451.694 263.001 444.819" stroke="#8AB0DD" stroke-width="0.33" stroke-miterlimit="10"/>
<path d="M366.898 444.819H262.993" stroke="#8AB0DD" stroke-width="0.33" stroke-miterlimit="10"/>
<path d="M314.946 444.819V496.772" stroke="#8AB0DD" stroke-width="0.33" stroke-miterlimit="10"/>
<path d="M366.899 496.771H470.797V444.819H366.899V496.771Z" stroke="#8AB0DD" stroke-width="0.33" stroke-miterlimit="10"/>
<path d="M470.796 444.819C470.878 451.694 469.595 458.516 467.021 464.891C464.447 471.266 460.634 477.066 455.802 481.957C450.97 486.847 445.215 490.729 438.872 493.379C432.528 496.029 425.722 497.394 418.847 497.394C411.972 497.394 405.165 496.029 398.822 493.379C392.478 490.729 386.724 486.847 381.891 481.957C377.059 477.066 373.246 471.266 370.672 464.891C368.098 458.516 366.815 451.694 366.898 444.819" stroke="#8AB0DD" stroke-width="0.33" stroke-miterlimit="10"/>
<path d="M470.796 444.819H366.898" stroke="#8AB0DD" stroke-width="0.33" stroke-miterlimit="10"/>
<path d="M418.844 444.819V496.772" stroke="#8AB0DD" stroke-width="0.33" stroke-miterlimit="10"/>
<path d="M470.796 496.771H574.694V444.819H470.796V496.771Z" stroke="#8AB0DD" stroke-width="0.33" stroke-miterlimit="10"/>
<path d="M574.695 444.819C574.777 451.694 573.494 458.516 570.92 464.891C568.346 471.266 564.533 477.066 559.701 481.957C554.869 486.847 549.114 490.729 542.771 493.379C536.427 496.029 529.62 497.394 522.746 497.394C515.871 497.394 509.064 496.029 502.721 493.379C496.377 490.729 490.622 486.847 485.79 481.957C480.958 477.066 477.145 471.266 474.571 464.891C471.997 458.516 470.714 451.694 470.797 444.819" stroke="#8AB0DD" stroke-width="0.33" stroke-miterlimit="10"/>
<path d="M574.695 444.819H470.797" stroke="#8AB0DD" stroke-width="0.33" stroke-miterlimit="10"/>
<path d="M522.749 444.819V496.772" stroke="#8AB0DD" stroke-width="0.33" stroke-miterlimit="10"/>
<path d="M159.096 159.094H133.119V185.071H159.096V159.094Z" fill="white"/>
<path d="M288.932 418.88H262.993V444.819H288.932V418.88Z" fill="black"/>
<path d="M366.899 185.071H185.072V159.094H159.096V-13.4758H366.899V185.071Z" fill="white"/>
<path d="M0.000976562 240.487H470.603V292.432H525.8V396.337H210.922V448.282H0.000976562V240.487Z" fill="black"/>
<path d="M263.001 444.819H211.116V532.347H263.001V444.819Z" fill="black"/>
<path d="M229.123 104.5L250.121 92.3713C251.319 91.705 252.373 90.807 253.22 89.7296C254.068 88.6521 254.693 87.4168 255.059 86.0955C255.424 84.7743 255.523 83.3935 255.35 82.0335C255.177 80.6735 254.735 79.3616 254.05 78.1741C253.365 76.9866 252.451 75.9473 251.36 75.1166C250.269 74.2859 249.024 73.6805 247.698 73.3357C246.371 72.9908 244.989 72.9133 243.631 73.1078C242.274 73.3023 240.97 73.7648 239.793 74.4684L203.496 95.4221L229.123 104.5Z" fill="#ED352F"/>
<path d="M244.949 135.663C247.225 135.664 249.438 134.914 251.244 133.529C253.049 132.145 254.348 130.202 254.937 128.004C255.527 125.806 255.374 123.475 254.503 121.373C253.632 119.27 252.092 117.514 250.121 116.376L213.831 95.4225C211.457 94.052 208.636 93.6806 205.988 94.3902C203.34 95.0998 201.083 96.8322 199.712 99.2062C198.342 101.58 197.97 104.402 198.68 107.049C199.39 109.697 201.122 111.955 203.496 113.325L239.793 134.279C241.36 135.186 243.139 135.664 244.949 135.663Z" fill="#4B7ABD"/>
<path d="M281.044 135.663C282.857 135.663 284.638 135.185 286.208 134.279L322.498 113.325L297.198 104.061L275.873 116.376C273.902 117.513 272.361 119.27 271.491 121.372C270.62 123.475 270.467 125.806 271.056 128.004C271.646 130.202 272.944 132.144 274.75 133.529C276.556 134.914 278.768 135.664 281.044 135.663Z" fill="#FCB912"/>
<path d="M317.319 114.709C319.598 114.719 321.816 113.975 323.628 112.593C325.44 111.211 326.745 109.269 327.339 107.069C327.933 104.869 327.784 102.534 326.914 100.427C326.043 98.3212 324.501 96.5616 322.528 95.4224L286.238 74.4687C285.063 73.7901 283.765 73.3496 282.419 73.1725C281.073 72.9954 279.706 73.0851 278.395 73.4364C277.084 73.7878 275.855 74.3939 274.778 75.2203C273.701 76.0466 272.798 77.0769 272.119 78.2525C271.44 79.428 271 80.7257 270.823 82.0714C270.646 83.4171 270.735 84.7846 271.087 86.0957C271.438 87.4068 272.044 88.6358 272.87 89.7126C273.697 90.7895 274.727 91.693 275.903 92.3716L312.192 113.325C313.751 114.226 315.519 114.703 317.319 114.709Z" fill="#00AC4E"/>
<path d="M133.015 335.341L123.521 340.505L120.44 333.808C118.779 335.912 116.659 337.609 114.242 338.769C111.826 339.93 109.176 340.524 106.496 340.505C94.9027 340.505 88.8384 330.906 88.8384 316.054C88.8384 299.937 95.9891 291.239 107.404 291.239C112.746 291.239 116.913 293.233 119.629 296.946V273.217H129.406V328.093L133.015 335.341ZM119.622 328.823V303.59C117.082 301.459 113.881 300.276 110.566 300.242C103.318 300.242 99.0622 305.763 99.0622 316.181C99.0622 326.144 103.051 331.665 110.38 331.665C113.665 331.612 116.868 330.626 119.614 328.823H119.622Z" fill="white"/>
<path d="M181.559 316.984H149.496C150.128 325.228 156.557 330.749 166.699 330.749C171.856 330.749 177.474 329.663 181.276 327.669L178.196 337.722C175.026 339.448 169.683 340.534 163.53 340.534C148.953 340.534 139.354 330.66 139.354 315.629C139.354 300.599 148.499 291.268 163.076 291.268C175.123 291.268 182.727 298.151 182.727 309.29C182.72 311.898 182.326 314.491 181.559 316.984ZM150.047 310.198H173.114C172.66 303.129 169.311 299.78 163.061 299.78C156.26 299.75 151.572 303.642 150.039 310.168L150.047 310.198Z" fill="white"/>
<path d="M205.37 339.307L186.895 292.429H197.676L209.708 325.169L211.07 329.239H211.427L212.811 325.169L224.717 292.429H235.313L216.934 339.307H205.37Z" fill="white"/>
<path d="M267.391 292.511H288.583L287.221 300.026H266.037L258.596 342.224C256.512 353.995 248.632 358.43 237.582 358.43C234.222 358.451 230.874 358.026 227.626 357.165L227.44 349.553C230.636 350.09 233.873 350.339 237.114 350.297C243.729 350.297 248.074 347.67 249.071 342.149L256.512 300.041H241.764L243.126 292.526H257.881L258.625 288.173C260.709 276.498 268.492 272.056 279.46 272.056C282.854 272.011 286.237 272.439 289.513 273.328L289.691 281.111C286.516 280.416 283.267 280.111 280.018 280.203C273.5 280.203 269.147 282.83 268.15 288.388L267.391 292.511Z" fill="white"/>
<path d="M332.321 316.984H300.265C300.898 325.228 307.327 330.749 317.469 330.749C322.625 330.749 328.243 329.663 332.046 327.669L328.965 337.722C325.795 339.448 320.453 340.534 314.299 340.534C299.722 340.534 290.123 330.66 290.123 315.629C290.123 300.599 299.268 291.268 313.845 291.268C325.892 291.268 333.497 298.151 333.497 309.29C333.487 311.898 333.091 314.491 332.321 316.984ZM300.808 310.198H323.875C323.422 303.129 320.073 299.78 313.823 299.78C307.051 299.75 302.349 303.642 300.808 310.168V310.198Z" fill="white"/>
<path d="M342.82 336.516L342.188 326.01C346.355 328.912 353.959 331.449 361.929 331.449C367.993 331.449 372.346 329.544 372.346 325.288C372.346 316.411 343.192 324.655 343.192 306.544C343.192 298.121 349.532 290.97 364.652 290.97C373.886 290.97 380.955 293.203 380.955 298.843C380.859 300.451 380.36 302.01 379.504 303.374C374.614 301.258 369.348 300.149 364.019 300.115C356.772 300.115 352.97 302.831 352.97 305.822C352.97 313.695 382.488 306.812 382.488 324.469C382.488 334.344 373.797 340.505 360.85 340.505C354.625 340.471 348.478 339.112 342.82 336.516Z" fill="white"/>
<path d="M432.921 329.365L430.927 338.51C427.27 339.833 423.409 340.507 419.52 340.505C407.838 340.505 402.852 334.433 402.852 325.831V300.658H389.548V292.429H402.852V279.556H412.637V292.429H431.575V300.673H412.637V322.855C412.637 328.926 415.807 331.642 421.328 331.642C424.498 331.628 430.295 330.906 432.921 329.365Z" fill="white"/>
</g>
</g>
</svg>
